<!-- icon16.svg -->
<svg width="16" height="16" viewBox="0 0 16 16" fill="none" xmlns="http://www.w3.org/2000/svg">
    <circle cx="4.5" cy="6.5" r="2.5" stroke="#666666" stroke-width="1.5" fill="none"/>
    <line x1="6.5" y1="8" x2="7.5" y2="9" stroke="#666666" stroke-width="1.5" stroke-linecap="round"/>
    <circle cx="8" cy="9.5" r="2.5" stroke="#666666" stroke-width="1.5" fill="none"/>
    <line x1="10" y1="11" x2="11" y2="12" stroke="#666666" stroke-width="1.5" stroke-linecap="round"/>
    <circle cx="11.5" cy="12.5" r="2.5" stroke="#666666" stroke-width="1.5" fill="none"/>
    <line x1="13.5" y1="14" x2="14.5" y2="15" stroke="#666666" stroke-width="1.5" stroke-linecap="round"/>
</svg>

<!-- icon48.svg -->
<svg width="48" height="48" viewBox="0 0 48 48" fill="none" xmlns="http://www.w3.org/2000/svg">
    <circle cx="13.5" cy="19.5" r="7.5" stroke="#666666" stroke-width="3" fill="none"/>
    <line x1="19.5" y1="24" x2="22.5" y2="27" stroke="#666666" stroke-width="3" stroke-linecap="round"/>
    <circle cx="24" cy="28.5" r="7.5" stroke="#666666" stroke-width="3" fill="none"/>
    <line x1="30" y1="33" x2="33" y2="36" stroke="#666666" stroke-width="3" stroke-linecap="round"/>
    <circle cx="34.5" cy="37.5" r="7.5" stroke="#666666" stroke-width="3" fill="none"/>
    <line x1="40.5" y1="42" x2="43.5" y2="45" stroke="#666666" stroke-width="3" stroke-linecap="round"/>
</svg>

<!-- icon128.svg -->
<svg width="128" height="128" viewBox="0 0 128 128" fill="none" xmlns="http://www.w3.org/2000/svg">
    <circle cx="36" cy="52" r="20" stroke="#666666" stroke-width="6" fill="none"/>
    <line x1="52" y1="64" x2="60" y2="72" stroke="#666666" stroke-width="6" stroke-linecap="round"/>
    <circle cx="64" cy="76" r="20" stroke="#666666" stroke-width="6" fill="none"/>
    <line x1="80" y1="88" x2="88" y2="96" stroke="#666666" stroke-width="6" stroke-linecap="round"/>
    <circle cx="92" cy="100" r="20" stroke="#666666" stroke-width="6" fill="none"/>
    <line x1="108" y1="112" x2="116" y2="120" stroke="#666666" stroke-width="6" stroke-linecap="round"/>
</svg>